<svg width="203" height="60" viewBox="0 0 203 60" fill="none" xmlns="http://www.w3.org/2000/svg">
<rect width="60" height="60" rx="2" fill="#F8DE4D"/>
<rect x="29" y="6" width="25" height="8" fill="#171C50"/>
<rect x="46" y="31" width="25" height="8" transform="rotate(-90 46 31)" fill="#171C50"/>
<path d="M67.517 24V6.54545H74.5057C75.7898 6.54545 76.8608 6.7358 77.7188 7.11648C78.5767 7.49716 79.2216 8.02557 79.6534 8.7017C80.0852 9.37216 80.3011 10.1449 80.3011 11.0199C80.3011 11.7017 80.1648 12.3011 79.892 12.8182C79.6193 13.3295 79.2443 13.75 78.767 14.0795C78.2955 14.4034 77.7557 14.6335 77.1477 14.7699V14.9403C77.8125 14.9687 78.4347 15.1562 79.0142 15.5028C79.5994 15.8494 80.0739 16.3352 80.4375 16.9602C80.8011 17.5795 80.983 18.3182 80.983 19.1761C80.983 20.1023 80.7528 20.929 80.2926 21.6562C79.8381 22.3778 79.1648 22.9489 78.2727 23.3693C77.3807 23.7898 76.2813 24 74.9744 24H67.517ZM71.2074 20.983H74.2159C75.2443 20.983 75.9943 20.7869 76.4659 20.3949C76.9375 19.9972 77.1733 19.4687 77.1733 18.8097C77.1733 18.3267 77.0568 17.9006 76.8239 17.5312C76.5909 17.1619 76.2585 16.8722 75.8267 16.6619C75.4006 16.4517 74.892 16.3466 74.3011 16.3466H71.2074V20.983ZM71.2074 13.8494H73.9432C74.4489 13.8494 74.8977 13.7614 75.2898 13.5852C75.6875 13.4034 76 13.1477 76.2273 12.8182C76.4602 12.4886 76.5767 12.0938 76.5767 11.6335C76.5767 11.0028 76.3523 10.4943 75.9034 10.108C75.4602 9.72159 74.8295 9.52841 74.0114 9.52841H71.2074V13.8494ZM86.3928 24H82.4382L88.4638 6.54545H93.2195L99.2365 24H95.282L90.9098 10.5341H90.7734L86.3928 24ZM86.1456 17.1392H95.4865V20.0199H86.1456V17.1392ZM115.937 6.54545V24H112.749L105.156 13.0142H105.028V24H101.337V6.54545H104.576L112.11 17.5227H112.263V6.54545H115.937ZM134.386 12.6562H130.653C130.585 12.1733 130.446 11.7443 130.236 11.3693C130.026 10.9886 129.756 10.6648 129.426 10.3977C129.097 10.1307 128.716 9.92614 128.284 9.78409C127.858 9.64205 127.395 9.57102 126.895 9.57102C125.991 9.57102 125.205 9.79545 124.534 10.2443C123.864 10.6875 123.344 11.3352 122.974 12.1875C122.605 13.0341 122.42 14.0625 122.42 15.2727C122.42 16.517 122.605 17.5625 122.974 18.4091C123.349 19.2557 123.872 19.8949 124.543 20.3267C125.213 20.7585 125.989 20.9744 126.869 20.9744C127.364 20.9744 127.821 20.9091 128.241 20.7784C128.668 20.6477 129.045 20.4574 129.375 20.2074C129.705 19.9517 129.977 19.642 130.193 19.2784C130.415 18.9148 130.568 18.5 130.653 18.0341L134.386 18.0511C134.29 18.8523 134.048 19.625 133.662 20.3693C133.281 21.108 132.767 21.7699 132.119 22.3551C131.477 22.9347 130.71 23.3949 129.818 23.7358C128.932 24.071 127.929 24.2386 126.81 24.2386C125.253 24.2386 123.861 23.8864 122.634 23.1818C121.412 22.4773 120.446 21.4574 119.736 20.1222C119.031 18.7869 118.679 17.1705 118.679 15.2727C118.679 13.3693 119.037 11.75 119.753 10.4148C120.469 9.07955 121.44 8.0625 122.668 7.36364C123.895 6.65909 125.276 6.30682 126.81 6.30682C127.821 6.30682 128.759 6.44886 129.622 6.73295C130.491 7.01705 131.261 7.43182 131.932 7.97727C132.602 8.51704 133.148 9.17898 133.568 9.96307C133.994 10.7472 134.267 11.6449 134.386 12.6562ZM153.072 15.2727C153.072 17.1761 152.712 18.7955 151.99 20.1307C151.274 21.4659 150.297 22.4858 149.058 23.1903C147.825 23.8892 146.439 24.2386 144.899 24.2386C143.348 24.2386 141.956 23.8864 140.723 23.1818C139.49 22.4773 138.516 21.4574 137.8 20.1222C137.084 18.7869 136.726 17.1705 136.726 15.2727C136.726 13.3693 137.084 11.75 137.8 10.4148C138.516 9.07955 139.49 8.0625 140.723 7.36364C141.956 6.65909 143.348 6.30682 144.899 6.30682C146.439 6.30682 147.825 6.65909 149.058 7.36364C150.297 8.0625 151.274 9.07955 151.99 10.4148C152.712 11.75 153.072 13.3693 153.072 15.2727ZM149.331 15.2727C149.331 14.0398 149.146 13 148.777 12.1534C148.413 11.3068 147.899 10.6648 147.234 10.2273C146.57 9.78977 145.791 9.57102 144.899 9.57102C144.007 9.57102 143.229 9.78977 142.564 10.2273C141.899 10.6648 141.382 11.3068 141.013 12.1534C140.649 13 140.467 14.0398 140.467 15.2727C140.467 16.5057 140.649 17.5455 141.013 18.392C141.382 19.2386 141.899 19.8807 142.564 20.3182C143.229 20.7557 144.007 20.9744 144.899 20.9744C145.791 20.9744 146.57 20.7557 147.234 20.3182C147.899 19.8807 148.413 19.2386 148.777 18.392C149.146 17.5455 149.331 16.5057 149.331 15.2727ZM67.517 53V35.5455H74.4034C75.7273 35.5455 76.8551 35.7983 77.7869 36.304C78.7188 36.804 79.429 37.5 79.9176 38.392C80.4119 39.2784 80.6591 40.3011 80.6591 41.4602C80.6591 42.6193 80.4091 43.642 79.9091 44.5284C79.4091 45.4148 78.6847 46.1051 77.7358 46.5994C76.7926 47.0937 75.6506 47.3409 74.3097 47.3409H69.9205V44.3835H73.7131C74.4233 44.3835 75.0085 44.2614 75.4688 44.017C75.9347 43.767 76.2813 43.4233 76.5085 42.9858C76.7415 42.5426 76.858 42.0341 76.858 41.4602C76.858 40.8807 76.7415 40.375 76.5085 39.9432C76.2813 39.5057 75.9347 39.1676 75.4688 38.929C75.0028 38.6847 74.4119 38.5625 73.696 38.5625H71.2074V53H67.517ZM86.7464 35.5455V53H83.0561V35.5455H86.7464ZM105.183 41.6562H101.45C101.382 41.1733 101.243 40.7443 101.033 40.3693C100.822 39.9886 100.553 39.6648 100.223 39.3977C99.8935 39.1307 99.5128 38.9261 99.081 38.7841C98.6548 38.642 98.1918 38.571 97.6918 38.571C96.7884 38.571 96.0014 38.7955 95.331 39.2443C94.6605 39.6875 94.1406 40.3352 93.7713 41.1875C93.402 42.0341 93.2173 43.0625 93.2173 44.2727C93.2173 45.517 93.402 46.5625 93.7713 47.4091C94.1463 48.2557 94.669 48.8949 95.3395 49.3267C96.0099 49.7585 96.7855 49.9744 97.6662 49.9744C98.1605 49.9744 98.6179 49.9091 99.0384 49.7784C99.4645 49.6477 99.8423 49.4574 100.172 49.2074C100.501 48.9517 100.774 48.642 100.99 48.2784C101.212 47.9148 101.365 47.5 101.45 47.0341L105.183 47.0511C105.087 47.8523 104.845 48.625 104.459 49.3693C104.078 50.108 103.564 50.7699 102.916 51.3551C102.274 51.9347 101.507 52.3949 100.615 52.7358C99.7287 53.071 98.7259 53.2386 97.6065 53.2386C96.0497 53.2386 94.6577 52.8864 93.4304 52.1818C92.2088 51.4773 91.2429 50.4574 90.5327 49.1222C89.8281 47.7869 89.4759 46.1705 89.4759 44.2727C89.4759 42.3693 89.8338 40.75 90.5497 39.4148C91.2656 38.0795 92.2372 37.0625 93.4645 36.3636C94.6918 35.6591 96.0724 35.3068 97.6065 35.3068C98.6179 35.3068 99.5554 35.4489 100.419 35.733C101.288 36.017 102.058 36.4318 102.729 36.9773C103.399 37.517 103.945 38.179 104.365 38.9631C104.791 39.7472 105.064 40.6449 105.183 41.6562ZM107.83 53V35.5455H111.52V42.7472H119.011V35.5455H122.693V53H119.011V45.7898H111.52V53H107.83ZM129.426 35.5455V53H125.736V35.5455H129.426ZM147.062 35.5455V53H143.874L136.281 42.0142H136.153V53H132.462V35.5455H135.701L143.235 46.5227H143.388V35.5455H147.062ZM165.511 41.6562H161.778C161.71 41.1733 161.571 40.7443 161.361 40.3693C161.151 39.9886 160.881 39.6648 160.551 39.3977C160.222 39.1307 159.841 38.9261 159.409 38.7841C158.983 38.642 158.52 38.571 158.02 38.571C157.116 38.571 156.33 38.7955 155.659 39.2443C154.989 39.6875 154.469 40.3352 154.099 41.1875C153.73 42.0341 153.545 43.0625 153.545 44.2727C153.545 45.517 153.73 46.5625 154.099 47.4091C154.474 48.2557 154.997 48.8949 155.668 49.3267C156.338 49.7585 157.114 49.9744 157.994 49.9744C158.489 49.9744 158.946 49.9091 159.366 49.7784C159.793 49.6477 160.17 49.4574 160.5 49.2074C160.83 48.9517 161.102 48.642 161.318 48.2784C161.54 47.9148 161.693 47.5 161.778 47.0341L165.511 47.0511C165.415 47.8523 165.173 48.625 164.787 49.3693C164.406 50.108 163.892 50.7699 163.244 51.3551C162.602 51.9347 161.835 52.3949 160.943 52.7358C160.057 53.071 159.054 53.2386 157.935 53.2386C156.378 53.2386 154.986 52.8864 153.759 52.1818C152.537 51.4773 151.571 50.4574 150.861 49.1222C150.156 47.7869 149.804 46.1705 149.804 44.2727C149.804 42.3693 150.162 40.75 150.878 39.4148C151.594 38.0795 152.565 37.0625 153.793 36.3636C155.02 35.6591 156.401 35.3068 157.935 35.3068C158.946 35.3068 159.884 35.4489 160.747 35.733C161.616 36.017 162.386 36.4318 163.057 36.9773C163.727 37.517 164.273 38.179 164.693 38.9631C165.119 39.7472 165.392 40.6449 165.511 41.6562ZM168.158 53V35.5455H171.848V42.7472H179.339V35.5455H183.021V53H179.339V45.7898H171.848V53H168.158ZM189.072 53H185.118L191.143 35.5455H195.899L201.916 53H197.962L193.589 39.5341H193.453L189.072 53ZM188.825 46.1392H198.166V49.0199H188.825V46.1392Z" fill="#171C50"/>
</svg>
